<mxfile host="www.draw.io" modified="2020-01-03T17:44:26.108Z" agent="Mozilla/5.0 (Windows NT 6.1; Win64; x64) AppleWebKit/537.36 (KHTML, like Gecko) Chrome/79.0.3945.88 Safari/537.36" etag="PUVqHB6EJgckocQW_zIf" version="12.4.7" type="github">
  <diagram id="4Bg3nB_NJ9jzZYIkfYmB" name="Page-1">
    <mxGraphModel dx="1384" dy="780" grid="1" gridSize="10" guides="1" tooltips="1" connect="1" arrows="1" fold="1" page="1" pageScale="1" pageWidth="827" pageHeight="1169" math="0" shadow="0">
      <root>
        <mxCell id="0"/>
        <mxCell id="1" parent="0"/>
        <mxCell id="h2TnwL6wdunBg8L8NeZG-2" value="" style="shape=cube;whiteSpace=wrap;html=1;boundedLbl=1;backgroundOutline=1;darkOpacity=0.05;darkOpacity2=0.1;flipV=0;flipH=1;" parent="1" vertex="1">
          <mxGeometry x="160" y="100" width="360" height="300" as="geometry"/>
        </mxCell>
        <mxCell id="h2TnwL6wdunBg8L8NeZG-3" value="1" style="rounded=0;whiteSpace=wrap;html=1;" parent="1" vertex="1">
          <mxGeometry x="160" y="120" width="40" height="40" as="geometry"/>
        </mxCell>
        <mxCell id="h2TnwL6wdunBg8L8NeZG-5" value="1,3" style="rounded=0;whiteSpace=wrap;html=1;" parent="1" vertex="1">
          <mxGeometry x="240" y="120" width="40" height="40" as="geometry"/>
        </mxCell>
        <mxCell id="h2TnwL6wdunBg8L8NeZG-9" value="1,3" style="rounded=0;whiteSpace=wrap;html=1;" parent="1" vertex="1">
          <mxGeometry x="320" y="120" width="40" height="40" as="geometry"/>
        </mxCell>
        <mxCell id="h2TnwL6wdunBg8L8NeZG-10" value="1,7" style="rounded=0;whiteSpace=wrap;html=1;" parent="1" vertex="1">
          <mxGeometry x="160" y="200" width="40" height="40" as="geometry"/>
        </mxCell>
        <mxCell id="h2TnwL6wdunBg8L8NeZG-11" value="2,8" style="rounded=0;whiteSpace=wrap;html=1;" parent="1" vertex="1">
          <mxGeometry x="200" y="200" width="40" height="40" as="geometry"/>
        </mxCell>
        <mxCell id="h2TnwL6wdunBg8L8NeZG-12" value="1,3&lt;br&gt;7,9" style="rounded=0;whiteSpace=wrap;html=1;" parent="1" vertex="1">
          <mxGeometry x="240" y="200" width="40" height="40" as="geometry"/>
        </mxCell>
        <mxCell id="h2TnwL6wdunBg8L8NeZG-13" value="2,8" style="rounded=0;whiteSpace=wrap;html=1;" parent="1" vertex="1">
          <mxGeometry x="280" y="200" width="40" height="40" as="geometry"/>
        </mxCell>
        <mxCell id="h2TnwL6wdunBg8L8NeZG-14" value="1,3&lt;br&gt;7,9" style="rounded=0;whiteSpace=wrap;html=1;" parent="1" vertex="1">
          <mxGeometry x="320" y="200" width="40" height="40" as="geometry"/>
        </mxCell>
        <mxCell id="h2TnwL6wdunBg8L8NeZG-15" value="4" style="rounded=0;whiteSpace=wrap;html=1;" parent="1" vertex="1">
          <mxGeometry x="160" y="240" width="40" height="40" as="geometry"/>
        </mxCell>
        <mxCell id="h2TnwL6wdunBg8L8NeZG-16" value="5" style="rounded=0;whiteSpace=wrap;html=1;" parent="1" vertex="1">
          <mxGeometry x="200" y="240" width="40" height="40" as="geometry"/>
        </mxCell>
        <mxCell id="h2TnwL6wdunBg8L8NeZG-17" value="4,6" style="rounded=0;whiteSpace=wrap;html=1;" parent="1" vertex="1">
          <mxGeometry x="240" y="240" width="40" height="40" as="geometry"/>
        </mxCell>
        <mxCell id="h2TnwL6wdunBg8L8NeZG-18" value="5" style="rounded=0;whiteSpace=wrap;html=1;" parent="1" vertex="1">
          <mxGeometry x="280" y="240" width="40" height="40" as="geometry"/>
        </mxCell>
        <mxCell id="h2TnwL6wdunBg8L8NeZG-19" value="4,6" style="rounded=0;whiteSpace=wrap;html=1;" parent="1" vertex="1">
          <mxGeometry x="320" y="240" width="40" height="40" as="geometry"/>
        </mxCell>
        <mxCell id="h2TnwL6wdunBg8L8NeZG-20" value="1,7" style="rounded=0;whiteSpace=wrap;html=1;" parent="1" vertex="1">
          <mxGeometry x="160" y="280" width="40" height="40" as="geometry"/>
        </mxCell>
        <mxCell id="h2TnwL6wdunBg8L8NeZG-21" value="2,8" style="rounded=0;whiteSpace=wrap;html=1;" parent="1" vertex="1">
          <mxGeometry x="200" y="280" width="40" height="40" as="geometry"/>
        </mxCell>
        <mxCell id="h2TnwL6wdunBg8L8NeZG-22" value="1,3&lt;br&gt;7,9" style="rounded=0;whiteSpace=wrap;html=1;" parent="1" vertex="1">
          <mxGeometry x="240" y="280" width="40" height="40" as="geometry"/>
        </mxCell>
        <mxCell id="h2TnwL6wdunBg8L8NeZG-23" value="2,8" style="rounded=0;whiteSpace=wrap;html=1;" parent="1" vertex="1">
          <mxGeometry x="280" y="280" width="40" height="40" as="geometry"/>
        </mxCell>
        <mxCell id="h2TnwL6wdunBg8L8NeZG-24" value="1,3&lt;br&gt;7,9" style="rounded=0;whiteSpace=wrap;html=1;" parent="1" vertex="1">
          <mxGeometry x="320" y="280" width="40" height="40" as="geometry"/>
        </mxCell>
        <mxCell id="h2TnwL6wdunBg8L8NeZG-25" value="4" style="rounded=0;whiteSpace=wrap;html=1;" parent="1" vertex="1">
          <mxGeometry x="160" y="160" width="40" height="40" as="geometry"/>
        </mxCell>
        <mxCell id="h2TnwL6wdunBg8L8NeZG-26" value="5" style="rounded=0;whiteSpace=wrap;html=1;" parent="1" vertex="1">
          <mxGeometry x="200" y="160" width="40" height="40" as="geometry"/>
        </mxCell>
        <mxCell id="h2TnwL6wdunBg8L8NeZG-27" value="4,6" style="rounded=0;whiteSpace=wrap;html=1;" parent="1" vertex="1">
          <mxGeometry x="240" y="160" width="40" height="40" as="geometry"/>
        </mxCell>
        <mxCell id="h2TnwL6wdunBg8L8NeZG-28" value="5" style="rounded=0;whiteSpace=wrap;html=1;" parent="1" vertex="1">
          <mxGeometry x="280" y="160" width="40" height="40" as="geometry"/>
        </mxCell>
        <mxCell id="h2TnwL6wdunBg8L8NeZG-29" value="4,6" style="rounded=0;whiteSpace=wrap;html=1;" parent="1" vertex="1">
          <mxGeometry x="320" y="160" width="40" height="40" as="geometry"/>
        </mxCell>
        <mxCell id="h2TnwL6wdunBg8L8NeZG-30" value="2" style="rounded=0;whiteSpace=wrap;html=1;" parent="1" vertex="1">
          <mxGeometry x="200" y="120" width="40" height="40" as="geometry"/>
        </mxCell>
        <mxCell id="h2TnwL6wdunBg8L8NeZG-31" value="2" style="rounded=0;whiteSpace=wrap;html=1;" parent="1" vertex="1">
          <mxGeometry x="280" y="120" width="40" height="40" as="geometry"/>
        </mxCell>
        <mxCell id="h2TnwL6wdunBg8L8NeZG-32" value="" style="whiteSpace=wrap;html=1;aspect=fixed;fillColor=#e3c800;strokeColor=#B09500;opacity=50;fontColor=#ffffff;strokeWidth=4;dashed=1;" parent="1" vertex="1">
          <mxGeometry x="160" y="200" width="120" height="120" as="geometry"/>
        </mxCell>
        <mxCell id="h2TnwL6wdunBg8L8NeZG-33" value="" style="whiteSpace=wrap;html=1;aspect=fixed;fillColor=#b1ddf0;opacity=50;strokeColor=#10739e;strokeWidth=4;dashed=1;" parent="1" vertex="1">
          <mxGeometry x="240" y="200" width="120" height="120" as="geometry"/>
        </mxCell>
        <mxCell id="h2TnwL6wdunBg8L8NeZG-34" value="" style="whiteSpace=wrap;html=1;aspect=fixed;opacity=50;fillColor=#647687;strokeColor=#314354;fontColor=#ffffff;strokeWidth=4;dashed=1;" parent="1" vertex="1">
          <mxGeometry x="240" y="120" width="120" height="120" as="geometry"/>
        </mxCell>
        <mxCell id="h2TnwL6wdunBg8L8NeZG-35" value="" style="whiteSpace=wrap;html=1;aspect=fixed;fillColor=#d80073;strokeColor=#A50040;opacity=50;fontColor=#ffffff;strokeWidth=4;dashed=1;" parent="1" vertex="1">
          <mxGeometry x="160" y="120" width="120" height="120" as="geometry"/>
        </mxCell>
        <mxCell id="h2TnwL6wdunBg8L8NeZG-36" value="" style="whiteSpace=wrap;html=1;aspect=fixed;strokeWidth=4;opacity=20;" parent="1" vertex="1">
          <mxGeometry x="240" y="200" width="80" height="80" as="geometry"/>
        </mxCell>
        <mxCell id="h2TnwL6wdunBg8L8NeZG-37" value="" style="whiteSpace=wrap;html=1;aspect=fixed;strokeWidth=4;opacity=20;" parent="1" vertex="1">
          <mxGeometry x="320" y="200" width="80" height="80" as="geometry"/>
        </mxCell>
        <mxCell id="h2TnwL6wdunBg8L8NeZG-38" value="" style="whiteSpace=wrap;html=1;aspect=fixed;strokeWidth=4;opacity=20;" parent="1" vertex="1">
          <mxGeometry x="240" y="280" width="80" height="80" as="geometry"/>
        </mxCell>
        <mxCell id="h2TnwL6wdunBg8L8NeZG-39" value="" style="whiteSpace=wrap;html=1;aspect=fixed;strokeWidth=4;opacity=20;" parent="1" vertex="1">
          <mxGeometry x="320" y="280" width="80" height="80" as="geometry"/>
        </mxCell>
        <mxCell id="aqXZllruIKehOKlHBljq-1" value="7" style="whiteSpace=wrap;html=1;aspect=fixed;" vertex="1" parent="1">
          <mxGeometry x="200" y="410" width="40" height="40" as="geometry"/>
        </mxCell>
        <mxCell id="aqXZllruIKehOKlHBljq-3" value="8" style="whiteSpace=wrap;html=1;aspect=fixed;" vertex="1" parent="1">
          <mxGeometry x="240" y="410" width="40" height="40" as="geometry"/>
        </mxCell>
        <mxCell id="aqXZllruIKehOKlHBljq-4" value="7,9" style="whiteSpace=wrap;html=1;aspect=fixed;" vertex="1" parent="1">
          <mxGeometry x="280" y="410" width="40" height="40" as="geometry"/>
        </mxCell>
        <mxCell id="aqXZllruIKehOKlHBljq-5" value="8" style="whiteSpace=wrap;html=1;aspect=fixed;" vertex="1" parent="1">
          <mxGeometry x="320" y="410" width="40" height="40" as="geometry"/>
        </mxCell>
        <mxCell id="aqXZllruIKehOKlHBljq-6" value="7,9" style="whiteSpace=wrap;html=1;aspect=fixed;" vertex="1" parent="1">
          <mxGeometry x="360" y="410" width="40" height="40" as="geometry"/>
        </mxCell>
        <mxCell id="aqXZllruIKehOKlHBljq-8" value="" style="whiteSpace=wrap;html=1;aspect=fixed;" vertex="1" parent="1">
          <mxGeometry x="40" y="520" width="120" height="120" as="geometry"/>
        </mxCell>
        <mxCell id="aqXZllruIKehOKlHBljq-9" value="" style="whiteSpace=wrap;html=1;aspect=fixed;" vertex="1" parent="1">
          <mxGeometry x="120" y="520" width="120" height="120" as="geometry"/>
        </mxCell>
        <mxCell id="aqXZllruIKehOKlHBljq-10" value="" style="whiteSpace=wrap;html=1;aspect=fixed;" vertex="1" parent="1">
          <mxGeometry x="200" y="520" width="120" height="120" as="geometry"/>
        </mxCell>
        <mxCell id="aqXZllruIKehOKlHBljq-11" value="" style="whiteSpace=wrap;html=1;aspect=fixed;" vertex="1" parent="1">
          <mxGeometry x="280" y="520" width="120" height="120" as="geometry"/>
        </mxCell>
        <mxCell id="aqXZllruIKehOKlHBljq-12" value="" style="whiteSpace=wrap;html=1;aspect=fixed;" vertex="1" parent="1">
          <mxGeometry x="360" y="520" width="120" height="120" as="geometry"/>
        </mxCell>
        <mxCell id="aqXZllruIKehOKlHBljq-13" value="" style="whiteSpace=wrap;html=1;aspect=fixed;" vertex="1" parent="1">
          <mxGeometry x="440" y="520" width="120" height="120" as="geometry"/>
        </mxCell>
        <mxCell id="aqXZllruIKehOKlHBljq-14" value="" style="whiteSpace=wrap;html=1;aspect=fixed;" vertex="1" parent="1">
          <mxGeometry x="520" y="520" width="120" height="120" as="geometry"/>
        </mxCell>
        <mxCell id="aqXZllruIKehOKlHBljq-15" value="" style="whiteSpace=wrap;html=1;aspect=fixed;" vertex="1" parent="1">
          <mxGeometry x="600" y="520" width="120" height="120" as="geometry"/>
        </mxCell>
        <mxCell id="aqXZllruIKehOKlHBljq-16" value="" style="whiteSpace=wrap;html=1;aspect=fixed;" vertex="1" parent="1">
          <mxGeometry x="40" y="600" width="120" height="120" as="geometry"/>
        </mxCell>
        <mxCell id="aqXZllruIKehOKlHBljq-17" value="" style="whiteSpace=wrap;html=1;aspect=fixed;" vertex="1" parent="1">
          <mxGeometry x="120" y="600" width="120" height="120" as="geometry"/>
        </mxCell>
        <mxCell id="aqXZllruIKehOKlHBljq-18" value="" style="whiteSpace=wrap;html=1;aspect=fixed;" vertex="1" parent="1">
          <mxGeometry x="200" y="600" width="120" height="120" as="geometry"/>
        </mxCell>
        <mxCell id="aqXZllruIKehOKlHBljq-19" value="" style="whiteSpace=wrap;html=1;aspect=fixed;" vertex="1" parent="1">
          <mxGeometry x="280" y="600" width="120" height="120" as="geometry"/>
        </mxCell>
        <mxCell id="aqXZllruIKehOKlHBljq-20" value="" style="whiteSpace=wrap;html=1;aspect=fixed;" vertex="1" parent="1">
          <mxGeometry x="360" y="600" width="120" height="120" as="geometry"/>
        </mxCell>
        <mxCell id="aqXZllruIKehOKlHBljq-21" value="" style="whiteSpace=wrap;html=1;aspect=fixed;" vertex="1" parent="1">
          <mxGeometry x="440" y="600" width="120" height="120" as="geometry"/>
        </mxCell>
        <mxCell id="aqXZllruIKehOKlHBljq-22" value="" style="whiteSpace=wrap;html=1;aspect=fixed;" vertex="1" parent="1">
          <mxGeometry x="520" y="600" width="120" height="120" as="geometry"/>
        </mxCell>
        <mxCell id="aqXZllruIKehOKlHBljq-23" value="" style="whiteSpace=wrap;html=1;aspect=fixed;" vertex="1" parent="1">
          <mxGeometry x="600" y="600" width="120" height="120" as="geometry"/>
        </mxCell>
        <mxCell id="aqXZllruIKehOKlHBljq-24" value="" style="whiteSpace=wrap;html=1;aspect=fixed;" vertex="1" parent="1">
          <mxGeometry x="40" y="680" width="120" height="120" as="geometry"/>
        </mxCell>
        <mxCell id="aqXZllruIKehOKlHBljq-25" value="" style="whiteSpace=wrap;html=1;aspect=fixed;" vertex="1" parent="1">
          <mxGeometry x="120" y="680" width="120" height="120" as="geometry"/>
        </mxCell>
        <mxCell id="aqXZllruIKehOKlHBljq-26" value="" style="whiteSpace=wrap;html=1;aspect=fixed;" vertex="1" parent="1">
          <mxGeometry x="200" y="680" width="120" height="120" as="geometry"/>
        </mxCell>
        <mxCell id="aqXZllruIKehOKlHBljq-27" value="" style="whiteSpace=wrap;html=1;aspect=fixed;" vertex="1" parent="1">
          <mxGeometry x="280" y="680" width="120" height="120" as="geometry"/>
        </mxCell>
        <mxCell id="aqXZllruIKehOKlHBljq-28" value="" style="whiteSpace=wrap;html=1;aspect=fixed;" vertex="1" parent="1">
          <mxGeometry x="360" y="680" width="120" height="120" as="geometry"/>
        </mxCell>
        <mxCell id="aqXZllruIKehOKlHBljq-29" value="" style="whiteSpace=wrap;html=1;aspect=fixed;" vertex="1" parent="1">
          <mxGeometry x="440" y="680" width="120" height="120" as="geometry"/>
        </mxCell>
        <mxCell id="aqXZllruIKehOKlHBljq-30" value="" style="whiteSpace=wrap;html=1;aspect=fixed;" vertex="1" parent="1">
          <mxGeometry x="520" y="680" width="120" height="120" as="geometry"/>
        </mxCell>
        <mxCell id="aqXZllruIKehOKlHBljq-31" value="" style="whiteSpace=wrap;html=1;aspect=fixed;" vertex="1" parent="1">
          <mxGeometry x="600" y="680" width="120" height="120" as="geometry"/>
        </mxCell>
        <mxCell id="aqXZllruIKehOKlHBljq-32" value="" style="whiteSpace=wrap;html=1;aspect=fixed;" vertex="1" parent="1">
          <mxGeometry x="40" y="760" width="120" height="120" as="geometry"/>
        </mxCell>
        <mxCell id="aqXZllruIKehOKlHBljq-33" value="" style="whiteSpace=wrap;html=1;aspect=fixed;" vertex="1" parent="1">
          <mxGeometry x="120" y="760" width="120" height="120" as="geometry"/>
        </mxCell>
        <mxCell id="aqXZllruIKehOKlHBljq-34" value="" style="whiteSpace=wrap;html=1;aspect=fixed;" vertex="1" parent="1">
          <mxGeometry x="200" y="760" width="120" height="120" as="geometry"/>
        </mxCell>
        <mxCell id="aqXZllruIKehOKlHBljq-35" value="" style="whiteSpace=wrap;html=1;aspect=fixed;" vertex="1" parent="1">
          <mxGeometry x="280" y="760" width="120" height="120" as="geometry"/>
        </mxCell>
        <mxCell id="aqXZllruIKehOKlHBljq-36" value="" style="whiteSpace=wrap;html=1;aspect=fixed;" vertex="1" parent="1">
          <mxGeometry x="360" y="760" width="120" height="120" as="geometry"/>
        </mxCell>
        <mxCell id="aqXZllruIKehOKlHBljq-37" value="" style="whiteSpace=wrap;html=1;aspect=fixed;" vertex="1" parent="1">
          <mxGeometry x="440" y="760" width="120" height="120" as="geometry"/>
        </mxCell>
        <mxCell id="aqXZllruIKehOKlHBljq-38" value="" style="whiteSpace=wrap;html=1;aspect=fixed;" vertex="1" parent="1">
          <mxGeometry x="520" y="760" width="120" height="120" as="geometry"/>
        </mxCell>
        <mxCell id="aqXZllruIKehOKlHBljq-39" value="" style="whiteSpace=wrap;html=1;aspect=fixed;" vertex="1" parent="1">
          <mxGeometry x="600" y="760" width="120" height="120" as="geometry"/>
        </mxCell>
        <mxCell id="aqXZllruIKehOKlHBljq-40" value="" style="whiteSpace=wrap;html=1;aspect=fixed;" vertex="1" parent="1">
          <mxGeometry x="40" y="840" width="120" height="120" as="geometry"/>
        </mxCell>
        <mxCell id="aqXZllruIKehOKlHBljq-41" value="" style="whiteSpace=wrap;html=1;aspect=fixed;" vertex="1" parent="1">
          <mxGeometry x="120" y="840" width="120" height="120" as="geometry"/>
        </mxCell>
        <mxCell id="aqXZllruIKehOKlHBljq-42" value="" style="whiteSpace=wrap;html=1;aspect=fixed;" vertex="1" parent="1">
          <mxGeometry x="200" y="840" width="120" height="120" as="geometry"/>
        </mxCell>
        <mxCell id="aqXZllruIKehOKlHBljq-43" value="" style="whiteSpace=wrap;html=1;aspect=fixed;" vertex="1" parent="1">
          <mxGeometry x="280" y="840" width="120" height="120" as="geometry"/>
        </mxCell>
        <mxCell id="aqXZllruIKehOKlHBljq-44" value="" style="whiteSpace=wrap;html=1;aspect=fixed;" vertex="1" parent="1">
          <mxGeometry x="360" y="840" width="120" height="120" as="geometry"/>
        </mxCell>
        <mxCell id="aqXZllruIKehOKlHBljq-45" value="" style="whiteSpace=wrap;html=1;aspect=fixed;" vertex="1" parent="1">
          <mxGeometry x="440" y="840" width="120" height="120" as="geometry"/>
        </mxCell>
        <mxCell id="aqXZllruIKehOKlHBljq-46" value="" style="whiteSpace=wrap;html=1;aspect=fixed;" vertex="1" parent="1">
          <mxGeometry x="520" y="840" width="120" height="120" as="geometry"/>
        </mxCell>
        <mxCell id="aqXZllruIKehOKlHBljq-47" value="" style="whiteSpace=wrap;html=1;aspect=fixed;" vertex="1" parent="1">
          <mxGeometry x="600" y="840" width="120" height="120" as="geometry"/>
        </mxCell>
        <mxCell id="aqXZllruIKehOKlHBljq-48" value="" style="whiteSpace=wrap;html=1;aspect=fixed;" vertex="1" parent="1">
          <mxGeometry x="40" y="920" width="120" height="120" as="geometry"/>
        </mxCell>
        <mxCell id="aqXZllruIKehOKlHBljq-49" value="" style="whiteSpace=wrap;html=1;aspect=fixed;" vertex="1" parent="1">
          <mxGeometry x="120" y="920" width="120" height="120" as="geometry"/>
        </mxCell>
        <mxCell id="aqXZllruIKehOKlHBljq-50" value="" style="whiteSpace=wrap;html=1;aspect=fixed;" vertex="1" parent="1">
          <mxGeometry x="200" y="920" width="120" height="120" as="geometry"/>
        </mxCell>
        <mxCell id="aqXZllruIKehOKlHBljq-51" value="" style="whiteSpace=wrap;html=1;aspect=fixed;" vertex="1" parent="1">
          <mxGeometry x="280" y="920" width="120" height="120" as="geometry"/>
        </mxCell>
        <mxCell id="aqXZllruIKehOKlHBljq-52" value="" style="whiteSpace=wrap;html=1;aspect=fixed;" vertex="1" parent="1">
          <mxGeometry x="360" y="920" width="120" height="120" as="geometry"/>
        </mxCell>
        <mxCell id="aqXZllruIKehOKlHBljq-53" value="" style="whiteSpace=wrap;html=1;aspect=fixed;" vertex="1" parent="1">
          <mxGeometry x="440" y="920" width="120" height="120" as="geometry"/>
        </mxCell>
        <mxCell id="aqXZllruIKehOKlHBljq-54" value="" style="whiteSpace=wrap;html=1;aspect=fixed;" vertex="1" parent="1">
          <mxGeometry x="520" y="920" width="120" height="120" as="geometry"/>
        </mxCell>
        <mxCell id="aqXZllruIKehOKlHBljq-55" value="" style="whiteSpace=wrap;html=1;aspect=fixed;" vertex="1" parent="1">
          <mxGeometry x="600" y="920" width="120" height="120" as="geometry"/>
        </mxCell>
        <mxCell id="aqXZllruIKehOKlHBljq-56" value="" style="whiteSpace=wrap;html=1;aspect=fixed;" vertex="1" parent="1">
          <mxGeometry x="40" y="1000" width="120" height="120" as="geometry"/>
        </mxCell>
        <mxCell id="aqXZllruIKehOKlHBljq-57" value="" style="whiteSpace=wrap;html=1;aspect=fixed;" vertex="1" parent="1">
          <mxGeometry x="120" y="1000" width="120" height="120" as="geometry"/>
        </mxCell>
        <mxCell id="aqXZllruIKehOKlHBljq-58" value="" style="whiteSpace=wrap;html=1;aspect=fixed;" vertex="1" parent="1">
          <mxGeometry x="200" y="1000" width="120" height="120" as="geometry"/>
        </mxCell>
        <mxCell id="aqXZllruIKehOKlHBljq-59" value="" style="whiteSpace=wrap;html=1;aspect=fixed;" vertex="1" parent="1">
          <mxGeometry x="280" y="1000" width="120" height="120" as="geometry"/>
        </mxCell>
        <mxCell id="aqXZllruIKehOKlHBljq-60" value="" style="whiteSpace=wrap;html=1;aspect=fixed;" vertex="1" parent="1">
          <mxGeometry x="360" y="1000" width="120" height="120" as="geometry"/>
        </mxCell>
        <mxCell id="aqXZllruIKehOKlHBljq-61" value="" style="whiteSpace=wrap;html=1;aspect=fixed;" vertex="1" parent="1">
          <mxGeometry x="440" y="1000" width="120" height="120" as="geometry"/>
        </mxCell>
        <mxCell id="aqXZllruIKehOKlHBljq-62" value="" style="whiteSpace=wrap;html=1;aspect=fixed;" vertex="1" parent="1">
          <mxGeometry x="520" y="1000" width="120" height="120" as="geometry"/>
        </mxCell>
        <mxCell id="aqXZllruIKehOKlHBljq-63" value="" style="whiteSpace=wrap;html=1;aspect=fixed;" vertex="1" parent="1">
          <mxGeometry x="600" y="1000" width="120" height="120" as="geometry"/>
        </mxCell>
        <mxCell id="aqXZllruIKehOKlHBljq-64" value="" style="whiteSpace=wrap;html=1;aspect=fixed;" vertex="1" parent="1">
          <mxGeometry x="40" y="1080" width="120" height="120" as="geometry"/>
        </mxCell>
        <mxCell id="aqXZllruIKehOKlHBljq-65" value="" style="whiteSpace=wrap;html=1;aspect=fixed;" vertex="1" parent="1">
          <mxGeometry x="120" y="1080" width="120" height="120" as="geometry"/>
        </mxCell>
        <mxCell id="aqXZllruIKehOKlHBljq-66" value="" style="whiteSpace=wrap;html=1;aspect=fixed;" vertex="1" parent="1">
          <mxGeometry x="200" y="1080" width="120" height="120" as="geometry"/>
        </mxCell>
        <mxCell id="aqXZllruIKehOKlHBljq-67" value="" style="whiteSpace=wrap;html=1;aspect=fixed;" vertex="1" parent="1">
          <mxGeometry x="280" y="1080" width="120" height="120" as="geometry"/>
        </mxCell>
        <mxCell id="aqXZllruIKehOKlHBljq-68" value="" style="whiteSpace=wrap;html=1;aspect=fixed;" vertex="1" parent="1">
          <mxGeometry x="360" y="1080" width="120" height="120" as="geometry"/>
        </mxCell>
        <mxCell id="aqXZllruIKehOKlHBljq-69" value="" style="whiteSpace=wrap;html=1;aspect=fixed;" vertex="1" parent="1">
          <mxGeometry x="440" y="1080" width="120" height="120" as="geometry"/>
        </mxCell>
        <mxCell id="aqXZllruIKehOKlHBljq-70" value="" style="whiteSpace=wrap;html=1;aspect=fixed;" vertex="1" parent="1">
          <mxGeometry x="520" y="1080" width="120" height="120" as="geometry"/>
        </mxCell>
        <mxCell id="aqXZllruIKehOKlHBljq-71" value="" style="whiteSpace=wrap;html=1;aspect=fixed;" vertex="1" parent="1">
          <mxGeometry x="600" y="1080" width="120" height="120" as="geometry"/>
        </mxCell>
        <mxCell id="aqXZllruIKehOKlHBljq-72" value="1" style="rounded=0;whiteSpace=wrap;html=1;" vertex="1" parent="1">
          <mxGeometry x="40" y="520" width="40" height="40" as="geometry"/>
        </mxCell>
        <mxCell id="aqXZllruIKehOKlHBljq-73" value="1,3" style="rounded=0;whiteSpace=wrap;html=1;" vertex="1" parent="1">
          <mxGeometry x="120" y="520" width="40" height="40" as="geometry"/>
        </mxCell>
        <mxCell id="aqXZllruIKehOKlHBljq-74" value="1,3" style="rounded=0;whiteSpace=wrap;html=1;" vertex="1" parent="1">
          <mxGeometry x="200" y="520" width="40" height="40" as="geometry"/>
        </mxCell>
        <mxCell id="aqXZllruIKehOKlHBljq-75" value="1,7" style="rounded=0;whiteSpace=wrap;html=1;" vertex="1" parent="1">
          <mxGeometry x="40" y="600" width="40" height="40" as="geometry"/>
        </mxCell>
        <mxCell id="aqXZllruIKehOKlHBljq-76" value="2,8" style="rounded=0;whiteSpace=wrap;html=1;" vertex="1" parent="1">
          <mxGeometry x="80" y="600" width="40" height="40" as="geometry"/>
        </mxCell>
        <mxCell id="aqXZllruIKehOKlHBljq-77" value="1,3&lt;br&gt;7,9" style="rounded=0;whiteSpace=wrap;html=1;" vertex="1" parent="1">
          <mxGeometry x="120" y="600" width="40" height="40" as="geometry"/>
        </mxCell>
        <mxCell id="aqXZllruIKehOKlHBljq-78" value="2,8" style="rounded=0;whiteSpace=wrap;html=1;" vertex="1" parent="1">
          <mxGeometry x="160" y="600" width="40" height="40" as="geometry"/>
        </mxCell>
        <mxCell id="aqXZllruIKehOKlHBljq-79" value="1,3&lt;br&gt;7,9" style="rounded=0;whiteSpace=wrap;html=1;" vertex="1" parent="1">
          <mxGeometry x="200" y="600" width="40" height="40" as="geometry"/>
        </mxCell>
        <mxCell id="aqXZllruIKehOKlHBljq-80" value="4" style="rounded=0;whiteSpace=wrap;html=1;" vertex="1" parent="1">
          <mxGeometry x="40" y="640" width="40" height="40" as="geometry"/>
        </mxCell>
        <mxCell id="aqXZllruIKehOKlHBljq-81" value="5" style="rounded=0;whiteSpace=wrap;html=1;" vertex="1" parent="1">
          <mxGeometry x="80" y="640" width="40" height="40" as="geometry"/>
        </mxCell>
        <mxCell id="aqXZllruIKehOKlHBljq-82" value="4,6" style="rounded=0;whiteSpace=wrap;html=1;" vertex="1" parent="1">
          <mxGeometry x="120" y="640" width="40" height="40" as="geometry"/>
        </mxCell>
        <mxCell id="aqXZllruIKehOKlHBljq-83" value="5" style="rounded=0;whiteSpace=wrap;html=1;" vertex="1" parent="1">
          <mxGeometry x="160" y="640" width="40" height="40" as="geometry"/>
        </mxCell>
        <mxCell id="aqXZllruIKehOKlHBljq-84" value="4,6" style="rounded=0;whiteSpace=wrap;html=1;" vertex="1" parent="1">
          <mxGeometry x="200" y="640" width="40" height="40" as="geometry"/>
        </mxCell>
        <mxCell id="aqXZllruIKehOKlHBljq-85" value="1,7" style="rounded=0;whiteSpace=wrap;html=1;" vertex="1" parent="1">
          <mxGeometry x="40" y="680" width="40" height="40" as="geometry"/>
        </mxCell>
        <mxCell id="aqXZllruIKehOKlHBljq-86" value="2,8" style="rounded=0;whiteSpace=wrap;html=1;" vertex="1" parent="1">
          <mxGeometry x="80" y="680" width="40" height="40" as="geometry"/>
        </mxCell>
        <mxCell id="aqXZllruIKehOKlHBljq-87" value="1,3&lt;br&gt;7,9" style="rounded=0;whiteSpace=wrap;html=1;" vertex="1" parent="1">
          <mxGeometry x="120" y="680" width="40" height="40" as="geometry"/>
        </mxCell>
        <mxCell id="aqXZllruIKehOKlHBljq-88" value="2,8" style="rounded=0;whiteSpace=wrap;html=1;" vertex="1" parent="1">
          <mxGeometry x="160" y="680" width="40" height="40" as="geometry"/>
        </mxCell>
        <mxCell id="aqXZllruIKehOKlHBljq-89" value="1,3&lt;br&gt;7,9" style="rounded=0;whiteSpace=wrap;html=1;" vertex="1" parent="1">
          <mxGeometry x="200" y="680" width="40" height="40" as="geometry"/>
        </mxCell>
        <mxCell id="aqXZllruIKehOKlHBljq-90" value="4" style="rounded=0;whiteSpace=wrap;html=1;" vertex="1" parent="1">
          <mxGeometry x="40" y="560" width="40" height="40" as="geometry"/>
        </mxCell>
        <mxCell id="aqXZllruIKehOKlHBljq-91" value="5" style="rounded=0;whiteSpace=wrap;html=1;" vertex="1" parent="1">
          <mxGeometry x="80" y="560" width="40" height="40" as="geometry"/>
        </mxCell>
        <mxCell id="aqXZllruIKehOKlHBljq-92" value="4,6" style="rounded=0;whiteSpace=wrap;html=1;" vertex="1" parent="1">
          <mxGeometry x="120" y="560" width="40" height="40" as="geometry"/>
        </mxCell>
        <mxCell id="aqXZllruIKehOKlHBljq-93" value="5" style="rounded=0;whiteSpace=wrap;html=1;" vertex="1" parent="1">
          <mxGeometry x="160" y="560" width="40" height="40" as="geometry"/>
        </mxCell>
        <mxCell id="aqXZllruIKehOKlHBljq-94" value="4,6" style="rounded=0;whiteSpace=wrap;html=1;" vertex="1" parent="1">
          <mxGeometry x="200" y="560" width="40" height="40" as="geometry"/>
        </mxCell>
        <mxCell id="aqXZllruIKehOKlHBljq-95" value="2" style="rounded=0;whiteSpace=wrap;html=1;" vertex="1" parent="1">
          <mxGeometry x="80" y="520" width="40" height="40" as="geometry"/>
        </mxCell>
        <mxCell id="aqXZllruIKehOKlHBljq-96" value="2" style="rounded=0;whiteSpace=wrap;html=1;" vertex="1" parent="1">
          <mxGeometry x="160" y="520" width="40" height="40" as="geometry"/>
        </mxCell>
        <mxCell id="aqXZllruIKehOKlHBljq-97" value="" style="whiteSpace=wrap;html=1;aspect=fixed;fillColor=#e3c800;strokeColor=#B09500;opacity=50;fontColor=#ffffff;strokeWidth=4;dashed=1;" vertex="1" parent="1">
          <mxGeometry x="40" y="600" width="120" height="120" as="geometry"/>
        </mxCell>
        <mxCell id="aqXZllruIKehOKlHBljq-98" value="" style="whiteSpace=wrap;html=1;aspect=fixed;fillColor=#b1ddf0;opacity=50;strokeColor=#10739e;strokeWidth=4;dashed=1;" vertex="1" parent="1">
          <mxGeometry x="120" y="600" width="120" height="120" as="geometry"/>
        </mxCell>
        <mxCell id="aqXZllruIKehOKlHBljq-99" value="" style="whiteSpace=wrap;html=1;aspect=fixed;opacity=50;fillColor=#647687;strokeColor=#314354;fontColor=#ffffff;strokeWidth=4;dashed=1;" vertex="1" parent="1">
          <mxGeometry x="120" y="520" width="120" height="120" as="geometry"/>
        </mxCell>
        <mxCell id="aqXZllruIKehOKlHBljq-100" value="" style="whiteSpace=wrap;html=1;aspect=fixed;fillColor=#d80073;strokeColor=#A50040;opacity=50;fontColor=#ffffff;strokeWidth=4;dashed=1;" vertex="1" parent="1">
          <mxGeometry x="40" y="520" width="120" height="120" as="geometry"/>
        </mxCell>
        <mxCell id="aqXZllruIKehOKlHBljq-101" value="" style="whiteSpace=wrap;html=1;aspect=fixed;strokeWidth=4;opacity=20;" vertex="1" parent="1">
          <mxGeometry x="120" y="600" width="80" height="80" as="geometry"/>
        </mxCell>
        <mxCell id="aqXZllruIKehOKlHBljq-106" value="" style="endArrow=classic;startArrow=classic;html=1;" edge="1" parent="1">
          <mxGeometry width="50" height="50" relative="1" as="geometry">
            <mxPoint x="820" y="480" as="sourcePoint"/>
            <mxPoint x="40" y="480" as="targetPoint"/>
          </mxGeometry>
        </mxCell>
        <mxCell id="aqXZllruIKehOKlHBljq-107" value="112" style="text;html=1;strokeColor=none;fillColor=none;align=center;verticalAlign=middle;whiteSpace=wrap;rounded=0;dashed=1;" vertex="1" parent="1">
          <mxGeometry x="400" y="460" width="40" height="20" as="geometry"/>
        </mxCell>
      </root>
    </mxGraphModel>
  </diagram>
</mxfile>
